<svg width="15" height="15" viewBox="0 0 15 15" fill="none" xmlns="http://www.w3.org/2000/svg">
<path d="M8.28258 0.458491C7.98918 0.165011 7.59123 8.86272e-05 7.17625 0H1.56482C1.1498 0 0.751784 0.164864 0.458324 0.458324C0.164864 0.751784 0 1.1498 0 1.56482V7.17625C8.86272e-05 7.59123 0.165011 7.98918 0.458491 8.28258L6.71776 14.5418C7.01121 14.8352 7.40915 15 7.82408 15C8.23902 15 8.63696 14.8352 8.93041 14.5418L14.5418 8.93041C14.8352 8.63696 15 8.23902 15 7.82408C15 7.40915 14.8352 7.01121 14.5418 6.71776L8.28258 0.458491V0.458491ZM3.91204 5.47686C3.49692 5.47676 3.09885 5.31175 2.80539 5.01814C2.51193 4.72454 2.34712 4.32638 2.34723 3.91126C2.34733 3.49614 2.51233 3.09807 2.80594 2.80461C3.09955 2.51115 3.49771 2.34634 3.91282 2.34644C4.32794 2.34655 4.72602 2.51155 5.01948 2.80516C5.31294 3.09877 5.47775 3.49692 5.47764 3.91204C5.47754 4.32716 5.31253 4.72524 5.01893 5.0187C4.72532 5.31216 4.32716 5.47696 3.91204 5.47686V5.47686Z" fill="#57767A"/>
</svg>
